HIERARCHY
ROOT ui
{
	 OFFSET 0 0 0
	 CHANNELS 3 XPosition YPosition Z Position
	 EndSite
	 {
	 OFFSET 0 -1 0
	 }
}
ROOT li
{
	 OFFSET 0 0 0
	 CHANNELS 3 XPosition YPosition Z Position
	 EndSite
	 {
	 OFFSET 0 -1 0
	 }
}
ROOT ul
{
	 OFFSET 0 0 0
	 CHANNELS 3 XPosition YPosition Z Position
	 EndSite
	 {
	 OFFSET 0 -1 0
	 }
}
ROOT ll
{
	 OFFSET 0 0 0
	 CHANNELS 3 XPosition YPosition Z Position
	 EndSite
	 {
	 OFFSET 0 -1 0
	 }
}
ROOT tt
{
	 OFFSET 0 0 0
	 CHANNELS 3 XPosition YPosition Z Position
	 EndSite
	 {
	 OFFSET 0 -1 0
	 }
}
ROOT tb
{
	 OFFSET 0 0 0
	 CHANNELS 3 XPosition YPosition Z Position
	 EndSite
	 {
	 OFFSET 0 -1 0
	 }
}
ROOT td
{
	 OFFSET 0 0 0
	 CHANNELS 3 XPosition YPosition Z Position
	 EndSite
	 {
	 OFFSET 0 -1 0
	 }
}
ROOT v
{
	 OFFSET 0 0 0
	 CHANNELS 3 XPosition YPosition Z Position
	 EndSite
	 {
	 OFFSET 0 -1 0
	 }
}
ROOT bn
{
	 OFFSET 0 0 0
	 CHANNELS 3 XPosition YPosition Z Position
	 EndSite
	 {
	 OFFSET 0 -1 0
	 }
}
MOTION
Frames: 16
Frame Time: 0.002
-0.006032187938690186	-4.48403000831604E-4	0		0.512633544921875	-2.3931728515625	0		-0.937691650390625	0.0418682861328125	0		-0.7472630615234375	-2.263923095703125	0		1.60266455078125	-0.6018298950195312	0		3.268837646484375	-0.14168205261230468	0		4.7713486328125	0.020914608001708985	0		5.62669775390625	0.2802909851074219	0		-0.38502725219726563	5.828166015625	0		
0.0022239489555358886	0.00974796962738037	0		0.49159136962890626	-2.38178076171875	0		-0.9295386352539062	0.040185291290283205	0		-0.7433439331054688	-2.2585947265625	0		1.6537598876953126	-0.6012299194335937	0		3.3009296875	-0.14812461853027345	0		4.7825439453125	0.02346804618835449	0		5.629962890625	0.286806396484375	0		-0.23684410095214845	5.85715234375	0		
0.08134674072265625	0.010295808792114258	0		0.5173787841796875	-2.382811279296875	0		-0.933343994140625	0.04861977767944336	0		-0.7435114135742188	-2.2562216796875	0		1.606861572265625	-0.5937451782226563	0		3.282228515625	-0.12611767578125	0		4.77573681640625	0.03116753578186035	0		5.63218115234375	0.29331011962890624	0		-0.253046875	5.8466142578125	0		
-0.0015877469778060912	0.008347514152526856	0		0.5110869750976562	-2.38853662109375	0		-0.9392952270507813	0.044091869354248046	0		-0.723740478515625	-2.257017822265625	0		1.6357467041015625	-0.606945068359375	0		3.26805810546875	-0.15214430236816406	0		4.7876982421875	0.016694530487060547	0		5.6211513671875	0.2759350280761719	0		-0.38935183715820315	5.8272158203125	0		
-0.006556693077087402	0.0037059879302978518	0		0.4978826599121094	-2.383173583984375	0		-0.9452592163085938	0.039589038848876955	0		-0.7619539184570312	-2.254248046875	0		1.5947513427734374	-0.605471923828125	0		3.286151123046875	-0.1484544677734375	0		4.76376904296875	0.015572538375854492	0		5.61925732421875	0.2744900207519531	0		-0.39048114013671875	5.82659912109375	0		
-0.008488937377929688	0.003064038038253784	0		0.4785726318359375	-2.388721923828125	0		-0.9471864624023437	0.03907709121704102	0		-0.72032568359375	-2.26820703125	0		1.631713623046875	-0.6087098999023437	0		3.276092529296875	-0.1604751281738281	0		4.772837890625	0.01416432762145996	0		5.6173623046875	0.27306890869140626	0		-0.39160693359375	5.82601025390625	0		
-0.010410257339477539	0.002453775882720947	0		0.4783406066894531	-2.3874189453125	0		-1.0180508422851562	0.044268051147460935	0		-0.7904598388671875	-2.258057373046875	0		1.5798369140625	-0.5960602416992188	0		3.27040185546875	-0.13550094604492188	0		4.768044921875	0.025922821044921874	0		5.6205556640625	0.2796331787109375	0		-0.39173443603515623	5.82444287109375	0		
-0.00623845386505127	0.008818623542785644	0		0.4951966552734375	-2.3802490234375	0		-0.9410052490234375	0.03704976654052734	0		-0.718697509765625	-2.26225732421875	0		1.6358359375	-0.5994246826171875	0		3.285258056640625	-0.15968940734863282	0		4.75802294921875	0.011777067184448242	0		5.6186962890625	0.2782918701171875	0		-0.393829833984375	5.82492919921875	0		
-0.014164397239685059	0.0013392590284347534	0		0.4999143371582031	-2.39192431640625	0		-0.9488074340820313	0.04169332504272461	0		-0.7588518676757813	-2.26232275390625	0		1.5868116455078125	-0.6087106323242187	0		3.2784599609375	-0.15261447143554688	0		4.7561669921875	0.010607752799987793	0		5.6117958984375	0.26905926513671874	0		-0.26070404052734375	5.8450986328125	0		
-0.015963496208190917	8.377079963684082E-4	0		0.5138524169921875	-2.3886533203125	0		-0.9546417236328125	0.03735065841674805	0		-0.736907958984375	-2.259973388671875	0		1.6239130859375	-0.6118096313476562	0		3.266662109375	-0.1514310302734375	0		4.7763681640625	0.009280256271362305	0		5.61003076171875	0.2678465270996094	0		-0.39598043823242185	5.8239873046875	0		
-0.01768328857421875	3.7353399395942687E-4	0		0.467820068359375	-2.391729248046875	0		-0.9523163452148438	0.04095686721801758	0		-0.7649464721679687	-2.265085205078125	0		1.5831429443359375	-0.610069091796875	0		3.26492431640625	-0.15228547668457032	0		4.75856787109375	4.107599854469299E-4	0		5.6083427734375	0.26671347045898436	0		-0.3970079040527344	5.82356787109375	0		
0.05768570327758789	-0.00185132896900177	0		0.4959605712890625	-2.3905205078125	0		-0.9479805297851562	0.03557024002075195	0		-0.7548635864257812	-2.270554443359375	0		1.595500244140625	-0.60681689453125	0		3.28223828125	-0.1582688446044922	0		4.76407568359375	0.01138716220855713	0		5.61592041015625	0.2815758361816406	0		-0.23358079528808592	5.86148095703125	0		
-0.014716668128967285	0.006492733001708984	0		0.47130972290039064	-2.383721435546875	0		-0.94139404296875	0.04218716812133789	0		-0.7624512939453125	-2.258810302734375	0		1.5880137939453125	-0.6013040771484375	0		3.263974365234375	-0.13580816650390626	0		4.75768115234375	0.019577056884765624	0		5.610375	0.2726722412109375	0		-0.24958624267578125	5.85226904296875	0		
0.05788351821899414	3.574430048465729E-4	0		0.5077157897949218	-2.388519287109375	0		-0.9567542114257812	0.04005986785888672	0		-0.7419807739257812	-2.2583330078125	0		1.5805447998046875	-0.6087341918945313	0		3.25035595703125	-0.16131889343261718	0		4.7592021484375	0.005778339862823487	0		5.60905517578125	0.27183071899414063	0		-0.2655178527832031	5.8430927734375	0		
-0.02027403259277344	0.0028491060733795166	0		0.46332583618164064	-2.391421875	0		-0.9619766235351562	0.03585195159912109	0		-0.7453634033203125	-2.261578125	0		1.61626123046875	-0.61456591796875	0		3.249160888671875	-0.16188192749023436	0		4.75801953125	0.005103243827819824	0		5.6028076171875	0.26314605712890626	0		-0.26626708984375	5.842791015625	0		
0.05265488433837891	-0.0032285189628601073	0		0.48710723876953127	-2.39700634765625	0		-0.962988037109375	0.03562369155883789	0		-0.7725709228515625	-2.2665419921875	0		1.576232666015625	-0.6125394897460937	0		3.26412548828125	-0.16354542541503905	0		4.7460068359375	0.0046334037780761715	0		5.59689599609375	0.27055862426757815	0		-0.42108673095703125	5.8271650390625	0		
